<?xml version="1.0" encoding="us-ascii" standalone="no"?><svg xmlns="http://www.w3.org/2000/svg" xmlns:xlink="http://www.w3.org/1999/xlink" contentStyleType="text/css" height="600px" preserveAspectRatio="none" style="width:700px;height:600px;background:#FFFFFF;" version="1.1" viewBox="0 0 700 600" width="700px" zoomAndPan="magnify"><defs/><g><!--class Flight--><g id="elem_Flight"><rect codeLine="5" fill="#F1F1F1" height="145.7813" id="Flight" rx="2.5" ry="2.5" style="stroke:#181818;stroke-width:0.5;" width="189" x="169.76" y="7"/><ellipse cx="241.51" cy="23" fill="#ADD1B2" rx="11" ry="11" style="stroke:#181818;stroke-width:1.0;"/><path d="M244.4788,28.6406 Q243.9006,28.9375 243.26,29.0781 Q242.6194,29.2344 241.9163,29.2344 Q239.4163,29.2344 238.0881,27.5938 Q236.7756,25.9375 236.7756,22.8125 Q236.7756,19.6875 238.0881,18.0313 Q239.4163,16.375 241.9163,16.375 Q242.6194,16.375 243.26,16.5313 Q243.9163,16.6875 244.4788,16.9844 L244.4788,19.7031 Q243.8538,19.125 243.26,18.8594 Q242.6663,18.5781 242.0413,18.5781 Q240.6975,18.5781 240.01,19.6563 Q239.3225,20.7188 239.3225,22.8125 Q239.3225,24.9063 240.01,25.9844 Q240.6975,27.0469 242.0413,27.0469 Q242.6663,27.0469 243.26,26.7813 Q243.8538,26.5 244.4788,25.9219 L244.4788,28.6406 Z " fill="#000000"/><text fill="#000000" font-family="sans-serif" font-size="14" lengthAdjust="spacing" textLength="37" x="262.01" y="27.8467">Flight</text><line style="stroke:#181818;stroke-width:0.5;" x1="170.76" x2="357.76" y1="39" y2="39"/><text fill="#000000" font-family="sans-serif" font-size="14" lengthAdjust="spacing" textLength="124" x="175.76" y="55.9951">flight_num : String</text><text fill="#000000" font-family="sans-serif" font-size="14" lengthAdjust="spacing" textLength="177" x="175.76" y="72.292">planned_departure : Date</text><text fill="#000000" font-family="sans-serif" font-size="14" lengthAdjust="spacing" textLength="162" x="175.76" y="88.5889">actual_departure : Date</text><text fill="#000000" font-family="sans-serif" font-size="14" lengthAdjust="spacing" textLength="148" x="175.76" y="104.8857">planned_arrival : Date</text><text fill="#000000" font-family="sans-serif" font-size="14" lengthAdjust="spacing" textLength="133" x="175.76" y="121.1826">actual_arrival : Date</text><text fill="#000000" font-family="sans-serif" font-size="14" lengthAdjust="spacing" textLength="50" x="175.76" y="137.4795">/record</text><line style="stroke:#181818;stroke-width:0.5;" x1="170.76" x2="357.76" y1="144.7813" y2="144.7813"/></g><!--class Private--><g id="elem_Private"><rect codeLine="14" fill="#F1F1F1" height="48" id="Private" rx="2.5" ry="2.5" style="stroke:#181818;stroke-width:0.5;" width="78" x="225.26" y="214"/><ellipse cx="240.26" cy="230" fill="#ADD1B2" rx="11" ry="11" style="stroke:#181818;stroke-width:1.0;"/><path d="M243.2288,235.6406 Q242.6506,235.9375 242.01,236.0781 Q241.3694,236.2344 240.6663,236.2344 Q238.1663,236.2344 236.8381,234.5938 Q235.5256,232.9375 235.5256,229.8125 Q235.5256,226.6875 236.8381,225.0313 Q238.1663,223.375 240.6663,223.375 Q241.3694,223.375 242.01,223.5313 Q242.6663,223.6875 243.2288,223.9844 L243.2288,226.7031 Q242.6038,226.125 242.01,225.8594 Q241.4163,225.5781 240.7913,225.5781 Q239.4475,225.5781 238.76,226.6563 Q238.0725,227.7188 238.0725,229.8125 Q238.0725,231.9063 238.76,232.9844 Q239.4475,234.0469 240.7913,234.0469 Q241.4163,234.0469 242.01,233.7813 Q242.6038,233.5 243.2288,232.9219 L243.2288,235.6406 Z " fill="#000000"/><text fill="#000000" font-family="sans-serif" font-size="14" lengthAdjust="spacing" textLength="46" x="254.26" y="234.8467">Private</text><line style="stroke:#181818;stroke-width:0.5;" x1="226.26" x2="302.26" y1="246" y2="246"/><line style="stroke:#181818;stroke-width:0.5;" x1="226.26" x2="302.26" y1="254" y2="254"/></g><!--class Non_Private--><g id="elem_Non_Private"><rect codeLine="15" fill="#F1F1F1" height="48" id="Non_Private" rx="2.5" ry="2.5" style="stroke:#181818;stroke-width:0.5;" width="111" x="431.76" y="214"/><ellipse cx="446.76" cy="230" fill="#ADD1B2" rx="11" ry="11" style="stroke:#181818;stroke-width:1.0;"/><path d="M449.7288,235.6406 Q449.1506,235.9375 448.51,236.0781 Q447.8694,236.2344 447.1663,236.2344 Q444.6663,236.2344 443.3381,234.5938 Q442.0256,232.9375 442.0256,229.8125 Q442.0256,226.6875 443.3381,225.0313 Q444.6663,223.375 447.1663,223.375 Q447.8694,223.375 448.51,223.5313 Q449.1663,223.6875 449.7288,223.9844 L449.7288,226.7031 Q449.1038,226.125 448.51,225.8594 Q447.9163,225.5781 447.2913,225.5781 Q445.9475,225.5781 445.26,226.6563 Q444.5725,227.7188 444.5725,229.8125 Q444.5725,231.9063 445.26,232.9844 Q445.9475,234.0469 447.2913,234.0469 Q447.9163,234.0469 448.51,233.7813 Q449.1038,233.5 449.7288,232.9219 L449.7288,235.6406 Z " fill="#000000"/><text fill="#000000" font-family="sans-serif" font-size="14" lengthAdjust="spacing" textLength="79" x="460.76" y="234.8467">Non-Private</text><line style="stroke:#181818;stroke-width:0.5;" x1="432.76" x2="541.76" y1="246" y2="246"/><line style="stroke:#181818;stroke-width:0.5;" x1="432.76" x2="541.76" y1="254" y2="254"/></g><!--class Cargo--><g id="elem_Cargo"><rect codeLine="17" fill="#F1F1F1" height="48" id="Cargo" rx="2.5" ry="2.5" style="stroke:#181818;stroke-width:0.5;" width="73" x="472.76" y="363.5"/><ellipse cx="487.76" cy="379.5" fill="#ADD1B2" rx="11" ry="11" style="stroke:#181818;stroke-width:1.0;"/><path d="M490.7288,385.1406 Q490.1506,385.4375 489.51,385.5781 Q488.8694,385.7344 488.1663,385.7344 Q485.6663,385.7344 484.3381,384.0938 Q483.0256,382.4375 483.0256,379.3125 Q483.0256,376.1875 484.3381,374.5313 Q485.6663,372.875 488.1663,372.875 Q488.8694,372.875 489.51,373.0313 Q490.1663,373.1875 490.7288,373.4844 L490.7288,376.2031 Q490.1038,375.625 489.51,375.3594 Q488.9163,375.0781 488.2913,375.0781 Q486.9475,375.0781 486.26,376.1563 Q485.5725,377.2188 485.5725,379.3125 Q485.5725,381.4063 486.26,382.4844 Q486.9475,383.5469 488.2913,383.5469 Q488.9163,383.5469 489.51,383.2813 Q490.1038,383 490.7288,382.4219 L490.7288,385.1406 Z " fill="#000000"/><text fill="#000000" font-family="sans-serif" font-size="14" lengthAdjust="spacing" textLength="41" x="501.76" y="384.3467">Cargo</text><line style="stroke:#181818;stroke-width:0.5;" x1="473.76" x2="544.76" y1="395.5" y2="395.5"/><line style="stroke:#181818;stroke-width:0.5;" x1="473.76" x2="544.76" y1="403.5" y2="403.5"/></g><!--class Commercial--><g id="elem_Commercial"><rect codeLine="18" fill="#F1F1F1" height="48" id="Commercial" rx="2.5" ry="2.5" style="stroke:#181818;stroke-width:0.5;" width="113" x="580.76" y="363.5"/><ellipse cx="595.76" cy="379.5" fill="#ADD1B2" rx="11" ry="11" style="stroke:#181818;stroke-width:1.0;"/><path d="M598.7288,385.1406 Q598.1506,385.4375 597.51,385.5781 Q596.8694,385.7344 596.1663,385.7344 Q593.6663,385.7344 592.3381,384.0938 Q591.0256,382.4375 591.0256,379.3125 Q591.0256,376.1875 592.3381,374.5313 Q593.6663,372.875 596.1663,372.875 Q596.8694,372.875 597.51,373.0313 Q598.1663,373.1875 598.7288,373.4844 L598.7288,376.2031 Q598.1038,375.625 597.51,375.3594 Q596.9163,375.0781 596.2913,375.0781 Q594.9475,375.0781 594.26,376.1563 Q593.5725,377.2188 593.5725,379.3125 Q593.5725,381.4063 594.26,382.4844 Q594.9475,383.5469 596.2913,383.5469 Q596.9163,383.5469 597.51,383.2813 Q598.1038,383 598.7288,382.4219 L598.7288,385.1406 Z " fill="#000000"/><text fill="#000000" font-family="sans-serif" font-size="14" lengthAdjust="spacing" textLength="81" x="609.76" y="384.3467">Commercial</text><line style="stroke:#181818;stroke-width:0.5;" x1="581.76" x2="692.76" y1="395.5" y2="395.5"/><line style="stroke:#181818;stroke-width:0.5;" x1="581.76" x2="692.76" y1="403.5" y2="403.5"/></g><!--class Airport--><g id="elem_Airport"><rect codeLine="20" fill="#F1F1F1" height="96.8906" id="Airport" rx="2.5" ry="2.5" style="stroke:#181818;stroke-width:0.5;" width="104" x="45.26" y="339"/><ellipse cx="72.41" cy="355" fill="#ADD1B2" rx="11" ry="11" style="stroke:#181818;stroke-width:1.0;"/><path d="M75.3788,360.6406 Q74.8006,360.9375 74.16,361.0781 Q73.5194,361.2344 72.8163,361.2344 Q70.3163,361.2344 68.9881,359.5938 Q67.6756,357.9375 67.6756,354.8125 Q67.6756,351.6875 68.9881,350.0313 Q70.3163,348.375 72.8163,348.375 Q73.5194,348.375 74.16,348.5313 Q74.8163,348.6875 75.3788,348.9844 L75.3788,351.7031 Q74.7538,351.125 74.16,350.8594 Q73.5663,350.5781 72.9413,350.5781 Q71.5975,350.5781 70.91,351.6563 Q70.2225,352.7188 70.2225,354.8125 Q70.2225,356.9063 70.91,357.9844 Q71.5975,359.0469 72.9413,359.0469 Q73.5663,359.0469 74.16,358.7813 Q74.7538,358.5 75.3788,357.9219 L75.3788,360.6406 Z " fill="#000000"/><text fill="#000000" font-family="sans-serif" font-size="14" lengthAdjust="spacing" textLength="45" x="89.11" y="359.8467">Airport</text><line style="stroke:#181818;stroke-width:0.5;" x1="46.26" x2="148.26" y1="371" y2="371"/><text fill="#000000" font-family="sans-serif" font-size="14" lengthAdjust="spacing" textLength="92" x="51.26" y="387.9951">name : String</text><text fill="#000000" font-family="sans-serif" font-size="14" lengthAdjust="spacing" textLength="88" x="51.26" y="404.292">code : String</text><text fill="#000000" font-family="sans-serif" font-size="14" lengthAdjust="spacing" textLength="50" x="51.26" y="420.5889">/record</text><line style="stroke:#181818;stroke-width:0.5;" x1="46.26" x2="148.26" y1="427.8906" y2="427.8906"/></g><!--class City--><g id="elem_City"><rect codeLine="26" fill="#F1F1F1" height="96.8906" id="City" rx="2.5" ry="2.5" style="stroke:#181818;stroke-width:0.5;" width="117" x="38.76" y="497"/><ellipse cx="80.76" cy="513" fill="#ADD1B2" rx="11" ry="11" style="stroke:#181818;stroke-width:1.0;"/><path d="M83.7288,518.6406 Q83.1506,518.9375 82.51,519.0781 Q81.8694,519.2344 81.1663,519.2344 Q78.6663,519.2344 77.3381,517.5938 Q76.0256,515.9375 76.0256,512.8125 Q76.0256,509.6875 77.3381,508.0313 Q78.6663,506.375 81.1663,506.375 Q81.8694,506.375 82.51,506.5313 Q83.1663,506.6875 83.7288,506.9844 L83.7288,509.7031 Q83.1038,509.125 82.51,508.8594 Q81.9163,508.5781 81.2913,508.5781 Q79.9475,508.5781 79.26,509.6563 Q78.5725,510.7188 78.5725,512.8125 Q78.5725,514.9063 79.26,515.9844 Q79.9475,517.0469 81.2913,517.0469 Q81.9163,517.0469 82.51,516.7813 Q83.1038,516.5 83.7288,515.9219 L83.7288,518.6406 Z " fill="#000000"/><text fill="#000000" font-family="sans-serif" font-size="14" lengthAdjust="spacing" textLength="25" x="100.76" y="517.8467">City</text><line style="stroke:#181818;stroke-width:0.5;" x1="39.76" x2="154.76" y1="529" y2="529"/><text fill="#000000" font-family="sans-serif" font-size="14" lengthAdjust="spacing" textLength="92" x="44.76" y="545.9951">name : String</text><text fill="#000000" font-family="sans-serif" font-size="14" lengthAdjust="spacing" textLength="105" x="44.76" y="562.292">country : String</text><text fill="#000000" font-family="sans-serif" font-size="14" lengthAdjust="spacing" textLength="93" x="44.76" y="578.5889">/temp_record</text><line style="stroke:#181818;stroke-width:0.5;" x1="39.76" x2="154.76" y1="585.8906" y2="585.8906"/></g><!--class Aircraft--><g id="elem_Aircraft"><rect codeLine="32" fill="#F1F1F1" height="64.2969" id="Aircraft" rx="2.5" ry="2.5" style="stroke:#181818;stroke-width:0.5;" width="145" x="292.76" y="355.5"/><ellipse cx="337.51" cy="371.5" fill="#ADD1B2" rx="11" ry="11" style="stroke:#181818;stroke-width:1.0;"/><path d="M340.4788,377.1406 Q339.9006,377.4375 339.26,377.5781 Q338.6194,377.7344 337.9163,377.7344 Q335.4163,377.7344 334.0881,376.0938 Q332.7756,374.4375 332.7756,371.3125 Q332.7756,368.1875 334.0881,366.5313 Q335.4163,364.875 337.9163,364.875 Q338.6194,364.875 339.26,365.0313 Q339.9163,365.1875 340.4788,365.4844 L340.4788,368.2031 Q339.8538,367.625 339.26,367.3594 Q338.6663,367.0781 338.0413,367.0781 Q336.6975,367.0781 336.01,368.1563 Q335.3225,369.2188 335.3225,371.3125 Q335.3225,373.4063 336.01,374.4844 Q336.6975,375.5469 338.0413,375.5469 Q338.6663,375.5469 339.26,375.2813 Q339.8538,375 340.4788,374.4219 L340.4788,377.1406 Z " fill="#000000"/><text fill="#000000" font-family="sans-serif" font-size="14" lengthAdjust="spacing" textLength="47" x="358.01" y="376.3467">Aircraft</text><line style="stroke:#181818;stroke-width:0.5;" x1="293.76" x2="436.76" y1="387.5" y2="387.5"/><text fill="#000000" font-family="sans-serif" font-size="14" lengthAdjust="spacing" textLength="133" x="298.76" y="404.4951">status: FlightStatus</text><line style="stroke:#181818;stroke-width:0.5;" x1="293.76" x2="436.76" y1="411.7969" y2="411.7969"/></g><!--class FlightStatus--><g id="elem_FlightStatus"><rect codeLine="36" fill="#F1F1F1" height="80.5938" id="FlightStatus" rx="2.5" ry="2.5" style="stroke:#181818;stroke-width:0.5;" width="113" x="393.76" y="39.5"/><ellipse cx="408.76" cy="55.5" fill="#EB937F" rx="11" ry="11" style="stroke:#181818;stroke-width:1.0;"/><path d="M412.8694,61.5 L405.1506,61.5 L405.1506,49.1094 L412.8694,49.1094 L412.8694,51.2656 L407.6038,51.2656 L407.6038,53.9375 L412.3694,53.9375 L412.3694,56.0938 L407.6038,56.0938 L407.6038,59.3438 L412.8694,59.3438 L412.8694,61.5 Z " fill="#000000"/><text fill="#000000" font-family="sans-serif" font-size="14" lengthAdjust="spacing" textLength="81" x="422.76" y="60.3467">FlightStatus</text><line style="stroke:#181818;stroke-width:0.5;" x1="394.76" x2="505.76" y1="71.5" y2="71.5"/><text fill="#000000" font-family="sans-serif" font-size="14" lengthAdjust="spacing" textLength="59" x="399.76" y="88.4951">InTransit</text><text fill="#000000" font-family="sans-serif" font-size="14" lengthAdjust="spacing" textLength="59" x="399.76" y="104.792">AtAirport</text><line style="stroke:#181818;stroke-width:0.5;" x1="394.76" x2="505.76" y1="112.0938" y2="112.0938"/></g><!--class Airline--><g id="elem_Airline"><rect codeLine="42" fill="#F1F1F1" height="64.2969" id="Airline" rx="2.5" ry="2.5" style="stroke:#181818;stroke-width:0.5;" width="73" x="184.76" y="355.5"/><ellipse cx="199.76" cy="371.5" fill="#ADD1B2" rx="11" ry="11" style="stroke:#181818;stroke-width:1.0;"/><path d="M202.7288,377.1406 Q202.1506,377.4375 201.51,377.5781 Q200.8694,377.7344 200.1663,377.7344 Q197.6663,377.7344 196.3381,376.0938 Q195.0256,374.4375 195.0256,371.3125 Q195.0256,368.1875 196.3381,366.5313 Q197.6663,364.875 200.1663,364.875 Q200.8694,364.875 201.51,365.0313 Q202.1663,365.1875 202.7288,365.4844 L202.7288,368.2031 Q202.1038,367.625 201.51,367.3594 Q200.9163,367.0781 200.2913,367.0781 Q198.9475,367.0781 198.26,368.1563 Q197.5725,369.2188 197.5725,371.3125 Q197.5725,373.4063 198.26,374.4844 Q198.9475,375.5469 200.2913,375.5469 Q200.9163,375.5469 201.51,375.2813 Q202.1038,375 202.7288,374.4219 L202.7288,377.1406 Z " fill="#000000"/><text fill="#000000" font-family="sans-serif" font-size="14" lengthAdjust="spacing" textLength="41" x="213.76" y="376.3467">Airline</text><line style="stroke:#181818;stroke-width:0.5;" x1="185.76" x2="256.76" y1="387.5" y2="387.5"/><text fill="#000000" font-family="sans-serif" font-size="14" lengthAdjust="spacing" textLength="50" x="190.76" y="404.4951">/record</text><line style="stroke:#181818;stroke-width:0.5;" x1="185.76" x2="256.76" y1="411.7969" y2="411.7969"/></g><!--link Flight to Private--><g id="link_Flight_Private"><path codeLine="48" d="M264.26,153.06 C264.26,175.1 264.26,179.77 264.26,195.98 " fill="none" id="Flight-to-Private" style="stroke:#181818;stroke-width:1.0;"/><polygon fill="none" points="264.26,213.98,270.26,195.98,258.26,195.98,264.26,213.98" style="stroke:#181818;stroke-width:1.0;"/></g><!--link Flight to Non_Private--><g id="link_Flight_Non_Private"><path codeLine="49" d="M358.84,147.16 C392.79,170.91 414.1297,185.8436 439.3797,203.5036 " fill="none" id="Flight-to-Non_Private" style="stroke:#181818;stroke-width:1.0;"/><polygon fill="none" points="454.13,213.82,442.8185,198.5868,435.9409,208.4203,454.13,213.82" style="stroke:#181818;stroke-width:1.0;"/></g><!--link Non_Private to Cargo--><g id="link_Non_Private_Cargo"><path codeLine="51" d="M490.7,262.05 C494.81,289.6 498.9946,317.6369 503.1246,345.3269 " fill="none" id="Non_Private-to-Cargo" style="stroke:#181818;stroke-width:1.0;"/><polygon fill="none" points="505.78,363.13,509.059,344.4418,497.1903,346.2121,505.78,363.13" style="stroke:#181818;stroke-width:1.0;"/></g><!--link Non_Private to Commercial--><g id="link_Non_Private_Commercial"><path codeLine="52" d="M510.7,262.05 C538.72,289.6 572.5054,322.8196 600.6654,350.5096 " fill="none" id="Non_Private-to-Commercial" style="stroke:#181818;stroke-width:1.0;"/><polygon fill="none" points="613.5,363.13,604.8722,346.2314,596.4586,354.7878,613.5,363.13" style="stroke:#181818;stroke-width:1.0;"/></g><!--link Non_Private to Airline--><g id="link_Non_Private_Airline"><path codeLine="53" d="M431.44,260.27 C387.32,278.25 325.1,306.27 275.26,339 C267.96,343.8 260.61,349.52 253.79,355.31 " fill="none" id="Non_Private-Airline" style="stroke:#181818;stroke-width:1.0;"/><text fill="#000000" font-family="sans-serif" font-size="13" lengthAdjust="spacing" textLength="70" x="361.26" y="305.0669">handled by</text><text fill="#000000" font-family="sans-serif" font-size="13" lengthAdjust="spacing" textLength="7" x="416.8396" y="259.2378">*</text><text fill="#000000" font-family="sans-serif" font-size="13" lengthAdjust="spacing" textLength="8" x="251.4068" y="344.5468">1</text></g><!--link Flight to Airport--><g id="link_Flight_Airport"><path codeLine="55" d="M169.73,108.5 C118.47,128.78 59.55,162.06 29.26,214 C6,253.91 23.1588,293.5385 48.9088,329.2285 " fill="none" id="Flight-to-Airport" style="stroke:#181818;stroke-width:1.0;"/><polygon fill="#181818" points="55.93,338.96,55.6632,331.7538,48.9088,329.2285,49.1756,336.4346,55.93,338.96" style="stroke:#181818;stroke-width:1.0;"/><text fill="#000000" font-family="sans-serif" font-size="13" lengthAdjust="spacing" textLength="43" x="30.26" y="242.5669">source</text><text fill="#000000" font-family="sans-serif" font-size="13" lengthAdjust="spacing" textLength="7" x="154.6119" y="107.3205">*</text><text fill="#000000" font-family="sans-serif" font-size="13" lengthAdjust="spacing" textLength="8" x="41.2722" y="327.8138">1</text></g><!--link Flight to Airport--><g id="link_Flight_Airport"><path codeLine="56" d="M179.72,153.01 C162.47,171.33 146.02,192.09 134.26,214 C113.4,252.86 105.6128,290.652 101.6428,326.722 " fill="none" id="Flight-to-Airport-1" style="stroke:#181818;stroke-width:1.0;"/><polygon fill="#181818" points="100.33,338.65,104.9624,333.1236,101.6428,326.722,97.0104,332.2484,100.33,338.65" style="stroke:#181818;stroke-width:1.0;"/><text fill="#000000" font-family="sans-serif" font-size="13" lengthAdjust="spacing" textLength="71" x="135.26" y="242.5669">destination</text><text fill="#000000" font-family="sans-serif" font-size="13" lengthAdjust="spacing" textLength="7" x="164.3287" y="172.7673">*</text><text fill="#000000" font-family="sans-serif" font-size="13" lengthAdjust="spacing" textLength="8" x="92.1992" y="327.8097">1</text></g><!--link Flight to Aircraft--><g id="link_Flight_Aircraft"><path codeLine="57" d="M296.84,153.1 C305.06,172.65 313.47,193.95 320.26,214 C336.71,262.51 348.0709,308.6816 355.9009,343.5516 " fill="none" id="Flight-to-Aircraft" style="stroke:#181818;stroke-width:1.0;"/><polygon fill="#181818" points="358.53,355.26,361.1183,348.5294,355.9009,343.5516,353.3126,350.2821,358.53,355.26" style="stroke:#181818;stroke-width:1.0;"/><text fill="#000000" font-family="sans-serif" font-size="13" lengthAdjust="spacing" textLength="23" x="275.8492" y="172.8658">1..*</text><text fill="#000000" font-family="sans-serif" font-size="13" lengthAdjust="spacing" textLength="8" x="348.4175" y="344.4869">1</text></g><!--link Airport to City--><g id="link_Airport_City"><path codeLine="59" d="M97.26,436.15 C97.26,455.42 97.26,477.61 97.26,496.87 " fill="none" id="Airport-City" style="stroke:#181818;stroke-width:1.0;"/><text fill="#000000" font-family="sans-serif" font-size="13" lengthAdjust="spacing" textLength="23" x="72.6428" y="456.13">0..*</text><text fill="#000000" font-family="sans-serif" font-size="13" lengthAdjust="spacing" textLength="8" x="88.6975" y="486.0606">1</text></g><!--link Airline to Aircraft--><g id="link_Airline_Aircraft"><path codeLine="61" d="M257.83,387.5 C269.44,387.5 269.05,387.5 280.66,387.5 " fill="none" id="Airline-to-Aircraft" style="stroke:#181818;stroke-width:1.0;"/><polygon fill="none" points="292.66,387.5,286.66,383.5,280.66,387.5,286.66,391.5,292.66,387.5" style="stroke:#181818;stroke-width:1.0;"/><text fill="#000000" font-family="sans-serif" font-size="13" lengthAdjust="spacing" textLength="8" x="265.8172" y="383.0742">1</text><text fill="#000000" font-family="sans-serif" font-size="13" lengthAdjust="spacing" textLength="23" x="265.7787" y="383.1825">1..*</text></g><!--link Private to Airport--><g id="link_Private_Airport"><path codeLine="63" d="M238.17,262.05 C214.5,282.95 178.91,314.39 149.42,340.44 " fill="none" id="Private-Airport" style="stroke:#181818;stroke-width:1.0;"/><text fill="#000000" font-family="sans-serif" font-size="13" lengthAdjust="spacing" textLength="80" x="202.26" y="305.0669">managed by</text><text fill="#000000" font-family="sans-serif" font-size="13" lengthAdjust="spacing" textLength="7" x="223.5876" y="282.2186">*</text><text fill="#000000" font-family="sans-serif" font-size="13" lengthAdjust="spacing" textLength="8" x="157.3175" y="329.8514">2</text></g><!--SRC=[VL9BRzim3BxhLn2-T2lWjjanXm91Ym6z5CEosp04ZCp6mcJ9aEW1sUE_ZvQin6wwtKH-3xuKDLg2bRg2-Dsu7WDs4FaekSZ1Q1uwAzYZYRYt585R0gEzY-1T2hJ5605PoFk1XV5EU-i3DPdsVc6So9l2VHB2rlmak0ELRJvQSsWPVYc0b_JSkQ63DMn5uGwIxIqwHysk8J7a8P20ZyWa44glQDz2YWX3C3_GNaWkyhU1j0-D-gEclZwD185ozEpTRie0HgWahgUuAee730TVthxhA6Y3jg0R4teVyg0EEvgFg7spY2-QUJ1y_8ToS1oE2p5Jr-zUEqXv7V0bru-CFCJrjFjjYaOgZQkV9nFxoNq9wA9XUMzucaFeLsVJ-cjhceRSj_kbvxcuDOwIssmsSVXC5jd8fsbD7zNq5-hwz_rf__FSx0fApK-IqBp_o_Jv57Eikgu4XsfLdTfRGukkiVAFzqTL2YVUTU6b4wuX-Y5e-Y-beSZ6fU5ElDNDpOAQbgTK4LLt6SzTZJTFMEfjpDI-M9orhyVvCE-XGuU7FCvV]--></g></svg>