<?xml version="1.0" encoding="us-ascii" standalone="no"?><svg xmlns="http://www.w3.org/2000/svg" xmlns:xlink="http://www.w3.org/1999/xlink" contentStyleType="text/css" height="560px" preserveAspectRatio="none" style="width:579px;height:560px;background:#FFFFFF;" version="1.1" viewBox="0 0 579 560" width="579px" zoomAndPan="magnify"><defs/><g><!--class Flight--><g id="elem_Flight"><rect codeLine="7" fill="#F1F1F1" height="137.7813" id="Flight" rx="2.5" ry="2.5" style="stroke:#181818;stroke-width:0.5;" width="189" x="122.76" y="7"/><ellipse cx="194.51" cy="23" fill="#ADD1B2" rx="11" ry="11" style="stroke:#181818;stroke-width:1.0;"/><path d="M197.4788,28.6406 Q196.9006,28.9375 196.26,29.0781 Q195.6194,29.2344 194.9163,29.2344 Q192.4163,29.2344 191.0881,27.5938 Q189.7756,25.9375 189.7756,22.8125 Q189.7756,19.6875 191.0881,18.0313 Q192.4163,16.375 194.9163,16.375 Q195.6194,16.375 196.26,16.5313 Q196.9163,16.6875 197.4788,16.9844 L197.4788,19.7031 Q196.8538,19.125 196.26,18.8594 Q195.6663,18.5781 195.0413,18.5781 Q193.6975,18.5781 193.01,19.6563 Q192.3225,20.7188 192.3225,22.8125 Q192.3225,24.9063 193.01,25.9844 Q193.6975,27.0469 195.0413,27.0469 Q195.6663,27.0469 196.26,26.7813 Q196.8538,26.5 197.4788,25.9219 L197.4788,28.6406 Z " fill="#000000"/><text fill="#000000" font-family="sans-serif" font-size="14" lengthAdjust="spacing" textLength="37" x="215.01" y="27.8467">Flight</text><line style="stroke:#181818;stroke-width:0.5;" x1="123.76" x2="310.76" y1="39" y2="39"/><text fill="#000000" font-family="sans-serif" font-size="14" lengthAdjust="spacing" textLength="124" x="128.76" y="55.9951">flight_num : String</text><text fill="#000000" font-family="sans-serif" font-size="14" lengthAdjust="spacing" textLength="177" x="128.76" y="72.292">planned_departure : Date</text><text fill="#000000" font-family="sans-serif" font-size="14" lengthAdjust="spacing" textLength="162" x="128.76" y="88.5889">actual_departure : Date</text><text fill="#000000" font-family="sans-serif" font-size="14" lengthAdjust="spacing" textLength="148" x="128.76" y="104.8857">planned_arrival : Date</text><text fill="#000000" font-family="sans-serif" font-size="14" lengthAdjust="spacing" textLength="133" x="128.76" y="121.1826">actual_arrival : Date</text><text fill="#000000" font-family="sans-serif" font-size="14" lengthAdjust="spacing" textLength="50" x="128.76" y="137.4795">/record</text></g><!--class Private--><g id="elem_Private"><rect codeLine="16" fill="#F1F1F1" height="32" id="Private" rx="2.5" ry="2.5" style="stroke:#181818;stroke-width:0.5;" width="78" x="178.26" y="206"/><ellipse cx="193.26" cy="222" fill="#ADD1B2" rx="11" ry="11" style="stroke:#181818;stroke-width:1.0;"/><path d="M196.2288,227.6406 Q195.6506,227.9375 195.01,228.0781 Q194.3694,228.2344 193.6663,228.2344 Q191.1663,228.2344 189.8381,226.5938 Q188.5256,224.9375 188.5256,221.8125 Q188.5256,218.6875 189.8381,217.0313 Q191.1663,215.375 193.6663,215.375 Q194.3694,215.375 195.01,215.5313 Q195.6663,215.6875 196.2288,215.9844 L196.2288,218.7031 Q195.6038,218.125 195.01,217.8594 Q194.4163,217.5781 193.7913,217.5781 Q192.4475,217.5781 191.76,218.6563 Q191.0725,219.7188 191.0725,221.8125 Q191.0725,223.9063 191.76,224.9844 Q192.4475,226.0469 193.7913,226.0469 Q194.4163,226.0469 195.01,225.7813 Q195.6038,225.5 196.2288,224.9219 L196.2288,227.6406 Z " fill="#000000"/><text fill="#000000" font-family="sans-serif" font-size="14" lengthAdjust="spacing" textLength="46" x="207.26" y="226.8467">Private</text></g><!--class Non_Private--><g id="elem_Non_Private"><rect codeLine="17" fill="#F1F1F1" height="32" id="Non_Private" rx="2.5" ry="2.5" style="stroke:#181818;stroke-width:0.5;" width="111" x="304.76" y="206"/><ellipse cx="319.76" cy="222" fill="#ADD1B2" rx="11" ry="11" style="stroke:#181818;stroke-width:1.0;"/><path d="M322.7288,227.6406 Q322.1506,227.9375 321.51,228.0781 Q320.8694,228.2344 320.1663,228.2344 Q317.6663,228.2344 316.3381,226.5938 Q315.0256,224.9375 315.0256,221.8125 Q315.0256,218.6875 316.3381,217.0313 Q317.6663,215.375 320.1663,215.375 Q320.8694,215.375 321.51,215.5313 Q322.1663,215.6875 322.7288,215.9844 L322.7288,218.7031 Q322.1038,218.125 321.51,217.8594 Q320.9163,217.5781 320.2913,217.5781 Q318.9475,217.5781 318.26,218.6563 Q317.5725,219.7188 317.5725,221.8125 Q317.5725,223.9063 318.26,224.9844 Q318.9475,226.0469 320.2913,226.0469 Q320.9163,226.0469 321.51,225.7813 Q322.1038,225.5 322.7288,224.9219 L322.7288,227.6406 Z " fill="#000000"/><text fill="#000000" font-family="sans-serif" font-size="14" lengthAdjust="spacing" textLength="79" x="333.76" y="226.8467">Non-Private</text></g><!--class Cargo--><g id="elem_Cargo"><rect codeLine="19" fill="#F1F1F1" height="32" id="Cargo" rx="2.5" ry="2.5" style="stroke:#181818;stroke-width:0.5;" width="73" x="464.76" y="343.5"/><ellipse cx="479.76" cy="359.5" fill="#ADD1B2" rx="11" ry="11" style="stroke:#181818;stroke-width:1.0;"/><path d="M482.7288,365.1406 Q482.1506,365.4375 481.51,365.5781 Q480.8694,365.7344 480.1663,365.7344 Q477.6663,365.7344 476.3381,364.0938 Q475.0256,362.4375 475.0256,359.3125 Q475.0256,356.1875 476.3381,354.5313 Q477.6663,352.875 480.1663,352.875 Q480.8694,352.875 481.51,353.0313 Q482.1663,353.1875 482.7288,353.4844 L482.7288,356.2031 Q482.1038,355.625 481.51,355.3594 Q480.9163,355.0781 480.2913,355.0781 Q478.9475,355.0781 478.26,356.1563 Q477.5725,357.2188 477.5725,359.3125 Q477.5725,361.4063 478.26,362.4844 Q478.9475,363.5469 480.2913,363.5469 Q480.9163,363.5469 481.51,363.2813 Q482.1038,363 482.7288,362.4219 L482.7288,365.1406 Z " fill="#000000"/><text fill="#000000" font-family="sans-serif" font-size="14" lengthAdjust="spacing" textLength="41" x="493.76" y="364.3467">Cargo</text></g><!--class Commercial--><g id="elem_Commercial"><rect codeLine="20" fill="#F1F1F1" height="32" id="Commercial" rx="2.5" ry="2.5" style="stroke:#181818;stroke-width:0.5;" width="113" x="316.76" y="343.5"/><ellipse cx="331.76" cy="359.5" fill="#ADD1B2" rx="11" ry="11" style="stroke:#181818;stroke-width:1.0;"/><path d="M334.7288,365.1406 Q334.1506,365.4375 333.51,365.5781 Q332.8694,365.7344 332.1663,365.7344 Q329.6663,365.7344 328.3381,364.0938 Q327.0256,362.4375 327.0256,359.3125 Q327.0256,356.1875 328.3381,354.5313 Q329.6663,352.875 332.1663,352.875 Q332.8694,352.875 333.51,353.0313 Q334.1663,353.1875 334.7288,353.4844 L334.7288,356.2031 Q334.1038,355.625 333.51,355.3594 Q332.9163,355.0781 332.2913,355.0781 Q330.9475,355.0781 330.26,356.1563 Q329.5725,357.2188 329.5725,359.3125 Q329.5725,361.4063 330.26,362.4844 Q330.9475,363.5469 332.2913,363.5469 Q332.9163,363.5469 333.51,363.2813 Q334.1038,363 334.7288,362.4219 L334.7288,365.1406 Z " fill="#000000"/><text fill="#000000" font-family="sans-serif" font-size="14" lengthAdjust="spacing" textLength="81" x="345.76" y="364.3467">Commercial</text></g><!--class Airport--><g id="elem_Airport"><rect codeLine="22" fill="#F1F1F1" height="88.8906" id="Airport" rx="2.5" ry="2.5" style="stroke:#181818;stroke-width:0.5;" width="104" x="46.26" y="315"/><ellipse cx="73.41" cy="331" fill="#ADD1B2" rx="11" ry="11" style="stroke:#181818;stroke-width:1.0;"/><path d="M76.3788,336.6406 Q75.8006,336.9375 75.16,337.0781 Q74.5194,337.2344 73.8163,337.2344 Q71.3163,337.2344 69.9881,335.5938 Q68.6756,333.9375 68.6756,330.8125 Q68.6756,327.6875 69.9881,326.0313 Q71.3163,324.375 73.8163,324.375 Q74.5194,324.375 75.16,324.5313 Q75.8163,324.6875 76.3788,324.9844 L76.3788,327.7031 Q75.7538,327.125 75.16,326.8594 Q74.5663,326.5781 73.9413,326.5781 Q72.5975,326.5781 71.91,327.6563 Q71.2225,328.7188 71.2225,330.8125 Q71.2225,332.9063 71.91,333.9844 Q72.5975,335.0469 73.9413,335.0469 Q74.5663,335.0469 75.16,334.7813 Q75.7538,334.5 76.3788,333.9219 L76.3788,336.6406 Z " fill="#000000"/><text fill="#000000" font-family="sans-serif" font-size="14" lengthAdjust="spacing" textLength="45" x="90.11" y="335.8467">Airport</text><line style="stroke:#181818;stroke-width:0.5;" x1="47.26" x2="149.26" y1="347" y2="347"/><text fill="#000000" font-family="sans-serif" font-size="14" lengthAdjust="spacing" textLength="92" x="52.26" y="363.9951">name : String</text><text fill="#000000" font-family="sans-serif" font-size="14" lengthAdjust="spacing" textLength="88" x="52.26" y="380.292">code : String</text><text fill="#000000" font-family="sans-serif" font-size="14" lengthAdjust="spacing" textLength="50" x="52.26" y="396.5889">/record</text></g><!--class City--><g id="elem_City"><rect codeLine="28" fill="#F1F1F1" height="88.8906" id="City" rx="2.5" ry="2.5" style="stroke:#181818;stroke-width:0.5;" width="117" x="39.76" y="465"/><ellipse cx="81.76" cy="481" fill="#ADD1B2" rx="11" ry="11" style="stroke:#181818;stroke-width:1.0;"/><path d="M84.7288,486.6406 Q84.1506,486.9375 83.51,487.0781 Q82.8694,487.2344 82.1663,487.2344 Q79.6663,487.2344 78.3381,485.5938 Q77.0256,483.9375 77.0256,480.8125 Q77.0256,477.6875 78.3381,476.0313 Q79.6663,474.375 82.1663,474.375 Q82.8694,474.375 83.51,474.5313 Q84.1663,474.6875 84.7288,474.9844 L84.7288,477.7031 Q84.1038,477.125 83.51,476.8594 Q82.9163,476.5781 82.2913,476.5781 Q80.9475,476.5781 80.26,477.6563 Q79.5725,478.7188 79.5725,480.8125 Q79.5725,482.9063 80.26,483.9844 Q80.9475,485.0469 82.2913,485.0469 Q82.9163,485.0469 83.51,484.7813 Q84.1038,484.5 84.7288,483.9219 L84.7288,486.6406 Z " fill="#000000"/><text fill="#000000" font-family="sans-serif" font-size="14" lengthAdjust="spacing" textLength="25" x="101.76" y="485.8467">City</text><line style="stroke:#181818;stroke-width:0.5;" x1="40.76" x2="155.76" y1="497" y2="497"/><text fill="#000000" font-family="sans-serif" font-size="14" lengthAdjust="spacing" textLength="92" x="45.76" y="513.9951">name : String</text><text fill="#000000" font-family="sans-serif" font-size="14" lengthAdjust="spacing" textLength="105" x="45.76" y="530.292">country : String</text><text fill="#000000" font-family="sans-serif" font-size="14" lengthAdjust="spacing" textLength="93" x="45.76" y="546.5889">/temp_record</text></g><!--class Aircraft--><g id="elem_Aircraft"><rect codeLine="34" fill="#F1F1F1" height="56.2969" id="Aircraft" rx="2.5" ry="2.5" style="stroke:#181818;stroke-width:0.5;" width="145" x="355.76" y="481.5"/><ellipse cx="400.51" cy="497.5" fill="#ADD1B2" rx="11" ry="11" style="stroke:#181818;stroke-width:1.0;"/><path d="M403.4788,503.1406 Q402.9006,503.4375 402.26,503.5781 Q401.6194,503.7344 400.9163,503.7344 Q398.4163,503.7344 397.0881,502.0938 Q395.7756,500.4375 395.7756,497.3125 Q395.7756,494.1875 397.0881,492.5313 Q398.4163,490.875 400.9163,490.875 Q401.6194,490.875 402.26,491.0313 Q402.9163,491.1875 403.4788,491.4844 L403.4788,494.2031 Q402.8538,493.625 402.26,493.3594 Q401.6663,493.0781 401.0413,493.0781 Q399.6975,493.0781 399.01,494.1563 Q398.3225,495.2188 398.3225,497.3125 Q398.3225,499.4063 399.01,500.4844 Q399.6975,501.5469 401.0413,501.5469 Q401.6663,501.5469 402.26,501.2813 Q402.8538,501 403.4788,500.4219 L403.4788,503.1406 Z " fill="#000000"/><text fill="#000000" font-family="sans-serif" font-size="14" lengthAdjust="spacing" textLength="47" x="421.01" y="502.3467">Aircraft</text><line style="stroke:#181818;stroke-width:0.5;" x1="356.76" x2="499.76" y1="513.5" y2="513.5"/><text fill="#000000" font-family="sans-serif" font-size="14" lengthAdjust="spacing" textLength="133" x="361.76" y="530.4951">status: FlightStatus</text></g><!--class FlightStatus--><g id="elem_FlightStatus"><rect codeLine="38" fill="#F1F1F1" height="72.5938" id="FlightStatus" rx="2.5" ry="2.5" style="stroke:#181818;stroke-width:0.5;" width="113" x="346.76" y="39.5"/><ellipse cx="361.76" cy="55.5" fill="#EB937F" rx="11" ry="11" style="stroke:#181818;stroke-width:1.0;"/><path d="M365.8694,61.5 L358.1506,61.5 L358.1506,49.1094 L365.8694,49.1094 L365.8694,51.2656 L360.6038,51.2656 L360.6038,53.9375 L365.3694,53.9375 L365.3694,56.0938 L360.6038,56.0938 L360.6038,59.3438 L365.8694,59.3438 L365.8694,61.5 Z " fill="#000000"/><text fill="#000000" font-family="sans-serif" font-size="14" lengthAdjust="spacing" textLength="81" x="375.76" y="60.3467">FlightStatus</text><line style="stroke:#181818;stroke-width:0.5;" x1="347.76" x2="458.76" y1="71.5" y2="71.5"/><text fill="#000000" font-family="sans-serif" font-size="14" lengthAdjust="spacing" textLength="59" x="352.76" y="88.4951">InTransit</text><text fill="#000000" font-family="sans-serif" font-size="14" lengthAdjust="spacing" textLength="59" x="352.76" y="104.792">AtAirport</text></g><!--class Airline--><g id="elem_Airline"><rect codeLine="43" fill="#F1F1F1" height="56.2969" id="Airline" rx="2.5" ry="2.5" style="stroke:#181818;stroke-width:0.5;" width="73" x="208.76" y="331.5"/><ellipse cx="223.76" cy="347.5" fill="#ADD1B2" rx="11" ry="11" style="stroke:#181818;stroke-width:1.0;"/><path d="M226.7288,353.1406 Q226.1506,353.4375 225.51,353.5781 Q224.8694,353.7344 224.1663,353.7344 Q221.6663,353.7344 220.3381,352.0938 Q219.0256,350.4375 219.0256,347.3125 Q219.0256,344.1875 220.3381,342.5313 Q221.6663,340.875 224.1663,340.875 Q224.8694,340.875 225.51,341.0313 Q226.1663,341.1875 226.7288,341.4844 L226.7288,344.2031 Q226.1038,343.625 225.51,343.3594 Q224.9163,343.0781 224.2913,343.0781 Q222.9475,343.0781 222.26,344.1563 Q221.5725,345.2188 221.5725,347.3125 Q221.5725,349.4063 222.26,350.4844 Q222.9475,351.5469 224.2913,351.5469 Q224.9163,351.5469 225.51,351.2813 Q226.1038,351 226.7288,350.4219 L226.7288,353.1406 Z " fill="#000000"/><text fill="#000000" font-family="sans-serif" font-size="14" lengthAdjust="spacing" textLength="41" x="237.76" y="352.3467">Airline</text><line style="stroke:#181818;stroke-width:0.5;" x1="209.76" x2="280.76" y1="363.5" y2="363.5"/><text fill="#000000" font-family="sans-serif" font-size="14" lengthAdjust="spacing" textLength="50" x="214.76" y="380.4951">/record</text></g><!--link Flight to Private--><g id="link_Flight_Private"><path codeLine="49" d="M217.26,145.2 C217.26,167.89 217.26,173.07 217.26,187.72 " fill="none" id="Flight-to-Private" style="stroke:#181818;stroke-width:1.0;"/><polygon fill="none" points="217.26,205.72,223.26,187.72,211.26,187.72,217.26,205.72" style="stroke:#181818;stroke-width:1.0;"/></g><!--link Flight to Non_Private--><g id="link_Flight_Non_Private"><path codeLine="50" d="M284.99,145.2 C307.51,167.89 317.8557,178.2986 332.4057,192.9486 " fill="none" id="Flight-to-Non_Private" style="stroke:#181818;stroke-width:1.0;"/><polygon fill="none" points="345.09,205.72,336.6629,188.7205,328.1486,197.1767,345.09,205.72" style="stroke:#181818;stroke-width:1.0;"/></g><!--link Non_Private to Cargo--><g id="link_Non_Private_Cargo"><path codeLine="52" d="M375.89,238.02 C402.99,264.06 445.4312,304.848 472.5812,330.938 " fill="none" id="Non_Private-to-Cargo" style="stroke:#181818;stroke-width:1.0;"/><polygon fill="none" points="485.56,343.41,476.7386,326.6117,468.4239,335.2642,485.56,343.41" style="stroke:#181818;stroke-width:1.0;"/></g><!--link Non_Private to Commercial--><g id="link_Non_Private_Commercial"><path codeLine="53" d="M361.7,238.02 C364.2,264.06 367.5931,299.4021 370.0931,325.4921 " fill="none" id="Non_Private-to-Commercial" style="stroke:#181818;stroke-width:1.0;"/><polygon fill="none" points="371.81,343.41,376.0657,324.9198,364.1204,326.0644,371.81,343.41" style="stroke:#181818;stroke-width:1.0;"/></g><!--link Non_Private to Airline--><g id="link_Non_Private_Airline"><path codeLine="54" d="M325.31,238.2 C311.44,245.59 296.21,255.59 285.26,268 C269.23,286.16 258.72,311.77 252.52,331.11 " fill="none" id="Non_Private-Airline" style="stroke:#181818;stroke-width:1.0;"/><text fill="#000000" font-family="sans-serif" font-size="13" lengthAdjust="spacing" textLength="70" x="286.26" y="281.0669">handled by</text><text fill="#000000" font-family="sans-serif" font-size="13" lengthAdjust="spacing" textLength="7" x="305.5734" y="258.1395">*</text><text fill="#000000" font-family="sans-serif" font-size="13" lengthAdjust="spacing" textLength="8" x="245.2331" y="320.308">1</text></g><!--link Flight to Airport--><g id="link_Flight_Airport"><path codeLine="56" d="M152.02,145.1 C137.66,163.59 124.11,184.48 115.26,206 C100.98,240.74 97.442,271.4712 96.992,302.8612 " fill="none" id="Flight-to-Airport" style="stroke:#181818;stroke-width:1.0;"/><polygon fill="#181818" points="96.82,314.86,100.9056,308.918,96.992,302.8612,92.9064,308.8033,96.82,314.86" style="stroke:#181818;stroke-width:1.0;"/><text fill="#000000" font-family="sans-serif" font-size="13" lengthAdjust="spacing" textLength="43" x="116.26" y="226.5669">source</text><text fill="#000000" font-family="sans-serif" font-size="13" lengthAdjust="spacing" textLength="7" x="137.9312" y="165.0844">*</text><text fill="#000000" font-family="sans-serif" font-size="13" lengthAdjust="spacing" textLength="8" x="87.987" y="303.9615">1</text></g><!--link Flight to Airport--><g id="link_Flight_Airport"><path codeLine="57" d="M122.67,116.27 C85.28,137.05 46.27,166.57 25.26,206 C6,242.14 21.792,274.8982 47.082,305.6782 " fill="none" id="Flight-to-Airport-1" style="stroke:#181818;stroke-width:1.0;"/><polygon fill="#181818" points="54.7,314.95,53.9816,307.7748,47.082,305.6782,47.8004,312.8535,54.7,314.95" style="stroke:#181818;stroke-width:1.0;"/><text fill="#000000" font-family="sans-serif" font-size="13" lengthAdjust="spacing" textLength="71" x="26.26" y="226.5669">destination</text><text fill="#000000" font-family="sans-serif" font-size="13" lengthAdjust="spacing" textLength="7" x="107.8535" y="115.9623">*</text><text fill="#000000" font-family="sans-serif" font-size="13" lengthAdjust="spacing" textLength="8" x="39.4174" y="304.0653">1</text></g><!--link Flight to Aircraft--><g id="link_Flight_Aircraft"><path codeLine="58" d="M311.91,134.61 C317.78,138.13 323.59,141.62 329.26,145 C437.19,209.41 503.91,200.28 555.26,315 C571.42,351.1 572.15,368.23 555.26,404 C539.53,437.31 517.5265,457.1258 489.5165,474.9958 " fill="none" id="Flight-to-Aircraft" style="stroke:#181818;stroke-width:1.0;"/><polygon fill="#181818" points="479.4,481.45,486.6096,481.5951,489.5165,474.9958,482.3069,474.8507,479.4,481.45" style="stroke:#181818;stroke-width:1.0;"/><text fill="#000000" font-family="sans-serif" font-size="13" lengthAdjust="spacing" textLength="23" x="319.7054" y="135.4432">1..*</text><text fill="#000000" font-family="sans-serif" font-size="13" lengthAdjust="spacing" textLength="8" x="482.3011" y="470.277">1</text></g><!--link Airport to City--><g id="link_Airport_City"><path codeLine="60" d="M98.26,404.1 C98.26,423.29 98.26,445.77 98.26,464.95 " fill="none" id="Airport-City" style="stroke:#181818;stroke-width:1.0;"/><text fill="#000000" font-family="sans-serif" font-size="13" lengthAdjust="spacing" textLength="23" x="73.5709" y="423.8369">0..*</text><text fill="#000000" font-family="sans-serif" font-size="13" lengthAdjust="spacing" textLength="8" x="89.6475" y="454.0653">1</text></g><!--link Airline to Aircraft--><g id="link_Airline_Aircraft"><path codeLine="62" d="M278.82,387.65 C311.74,414.27 352.3198,447.0837 385.2698,473.7337 " fill="none" id="Airline-to-Aircraft" style="stroke:#181818;stroke-width:1.0;"/><polygon fill="none" points="394.6,481.28,392.4503,474.3968,385.2698,473.7337,387.4194,480.6169,394.6,481.28" style="stroke:#181818;stroke-width:1.0;"/><text fill="#000000" font-family="sans-serif" font-size="13" lengthAdjust="spacing" textLength="8" x="277.6558" y="407.942">1</text><text fill="#000000" font-family="sans-serif" font-size="13" lengthAdjust="spacing" textLength="23" x="361.7213" y="470.5152">1..*</text></g><!--link Private to Airport--><g id="link_Private_Airport"><path codeLine="64" d="M204.07,238.02 C187.91,256.42 159.83,288.39 136.66,314.78 " fill="none" id="Private-Airport" style="stroke:#181818;stroke-width:1.0;"/><text fill="#000000" font-family="sans-serif" font-size="13" lengthAdjust="spacing" textLength="80" x="177.26" y="281.0669">managed by</text><text fill="#000000" font-family="sans-serif" font-size="13" lengthAdjust="spacing" textLength="7" x="191.3328" y="258.1947">*</text><text fill="#000000" font-family="sans-serif" font-size="13" lengthAdjust="spacing" textLength="8" x="133.9275" y="303.8692">2</text></g><!--SRC=[VLBBRjim4BppAnQwj0sWDExHXm96WWAv54NTkx6cDXPHFWHoLS1z_7jNfEX8SP0RTsPsEJjaqcW9DkeTf9_63nZHGUApO8cZqJmwAzo3INYqb81x0gE3Jn1yBhJ5b01PnCUHHV5U1niYTKNsOJKuYtTL-oY2lVbDS0UgDnq1kO7FuCWTAIQbokWlrfnwXZyAu2aV3tvqi8MzJF4dGGUBtbDtw4WkuJ6Ia0_891IAVxIlCRK9OpI_q5wrNE4V8-aGE_Ml-les2OGgrTVW3pC2cA2HkfthfdRSOpo5UWxEKTG6RMLt9WuXbaKzEbgkg4Etgg_Ct1i9xlNEqNCyhvfPSZwyd23NwuXFvVx4o6FQpjdlSpL9QOf-2MRre_yHqIV3SjxnlCTgiZMUidHXN3x6TxB8Hdv9RuQaveTksx-VB-4kiKN4IYtppcm9znf-pdd9DJUDyD1icekzBVJeEoiVztXMzUAikwcw_3vRI66CcjwKT9JO-BpSHRUvlLr9SznArQRchl35rVIWcSlU9gHjGvtntFnodqzB4muzdie-_m40]--></g></svg>